<svg xmlns="http://www.w3.org/2000/svg" viewBox="0 0 1200 700" role="img" aria-label="Hackathon Mapazzz">
  <defs>
    <linearGradient id="bg2" x1="0" y1="0" x2="1" y2="1">
      <stop offset="0%" stop-color="#052e2b"/>
      <stop offset="100%" stop-color="#0f766e"/>
    </linearGradient>
  </defs>
  <rect width="1200" height="700" fill="url(#bg2)"/>
  <g fill="none" stroke="#2dd4bf" stroke-width="2" opacity="0.22">
    <path d="M0 100h1200M0 200h1200M0 300h1200M0 400h1200M0 500h1200M0 600h1200"/>
    <path d="M120 0v700M240 0v700M360 0v700M480 0v700M600 0v700M720 0v700M840 0v700M960 0v700M1080 0v700"/>
  </g>
  <text x="80" y="170" fill="#ecfeff" font-size="54" font-family="Inter, Arial, sans-serif" font-weight="700">Hackathon Mapazzz</text>
  <text x="80" y="235" fill="#99f6e4" font-size="32" font-family="Inter, Arial, sans-serif">2º Lugar</text>
  <rect x="80" y="290" width="1040" height="280" rx="24" fill="#062b28" opacity="0.78" stroke="#14b8a6"/>
  <text x="120" y="370" fill="#ccfbf1" font-size="34" font-family="Inter, Arial, sans-serif">Solução destacada por impacto prático e qualidade de entrega.</text>
  <text x="120" y="430" fill="#ccfbf1" font-size="28" font-family="Inter, Arial, sans-serif">Substitua esta imagem por screenshot/foto oficial do evento.</text>
</svg>
