<svg xmlns="http://www.w3.org/2000/svg" viewBox="0 0 1200 700" role="img" aria-label="Hackathon das Olimpiadas">
  <defs>
    <linearGradient id="bg1" x1="0" y1="0" x2="1" y2="1">
      <stop offset="0%" stop-color="#0f172a"/>
      <stop offset="100%" stop-color="#1d4ed8"/>
    </linearGradient>
  </defs>
  <rect width="1200" height="700" fill="url(#bg1)"/>
  <g fill="none" stroke="#60a5fa" stroke-width="2" opacity="0.25">
    <path d="M0 80h1200M0 160h1200M0 240h1200M0 320h1200M0 400h1200M0 480h1200M0 560h1200"/>
    <path d="M100 0v700M200 0v700M300 0v700M400 0v700M500 0v700M600 0v700M700 0v700M800 0v700M900 0v700M1000 0v700M1100 0v700"/>
  </g>
  <text x="80" y="170" fill="#e2e8f0" font-size="54" font-family="Inter, Arial, sans-serif" font-weight="700">Hackathon das Olimpiadas</text>
  <text x="80" y="235" fill="#93c5fd" font-size="32" font-family="Inter, Arial, sans-serif">1º Lugar</text>
  <rect x="80" y="290" width="1040" height="280" rx="24" fill="#0b1224" opacity="0.78" stroke="#3b82f6"/>
  <text x="120" y="370" fill="#bfdbfe" font-size="34" font-family="Inter, Arial, sans-serif">Projeto premiado por inovação e execução técnica.</text>
  <text x="120" y="430" fill="#bfdbfe" font-size="28" font-family="Inter, Arial, sans-serif">Substitua esta imagem por screenshot/foto oficial do evento.</text>
</svg>
